<svg width="117" height="69" viewBox="0 0 117 69" fill="none" xmlns="http://www.w3.org/2000/svg">
<g clip-path="url(#clip0_302_1447)">
<mask id="mask0_302_1447" style="mask-type:luminance" maskUnits="userSpaceOnUse" x="0" y="0" width="117" height="69">
<path d="M116.48 0H0V69H116.48V0Z" fill="white"/>
</mask>
<g mask="url(#mask0_302_1447)">
<path d="M59.4289 4.53429L59.8252 7.22857H65.3058L63.721 0H56.3916L51.9014 7.22857H57.9103L59.4289 4.53429Z" fill="#F6F6F6"/>
<path d="M65.3708 18.8601L63.3239 9.2002H57.8432L58.2394 11.8945H54.3435L55.9283 9.2002H49.9194L43.9766 18.8601H50.4477L51.8343 16.363H58.9657L59.3619 18.8601H65.3708Z" fill="#F6F6F6"/>
<path d="M82.4049 17.6773C84.3198 16.8887 85.7725 15.706 86.7629 14.2602C87.7534 12.8145 88.2818 11.1716 88.2818 9.2002H82.0087C82.0087 9.39733 82.0747 9.52877 82.0747 9.7259C82.0747 11.1059 81.6125 12.1573 80.622 12.9459C79.6316 13.7345 78.3769 14.1288 76.7922 14.1288H74.4151L75.4056 9.2002H69.3307L67.3496 18.8601H75.6696C78.2449 18.8601 80.49 18.466 82.4049 17.6773Z" fill="#F6F6F6"/>
<path d="M77.9195 4.73147H80.3627C81.6173 4.73147 82.5418 4.99433 83.136 5.45433C83.5982 5.84861 83.9284 6.44004 83.9944 7.22861H90.2675C90.2675 7.22861 90.2675 7.22861 90.2675 7.1629C90.2675 4.79718 89.4751 3.0229 87.9564 1.77433C86.4376 0.59147 84.1926 -0.0656738 81.1551 -0.0656738H72.8351L71.3164 7.22861H77.3253L77.9195 4.73147Z" fill="#F6F6F6"/>
<path d="M99.3773 12.8145L102.415 9.2002H91.8496L93.3023 12.5516L91.9818 18.8601H98.1227L99.3773 12.8145Z" fill="#F6F6F6"/>
<path d="M104.396 7.22857L110.603 0H104L99.1794 5.98L96.8682 0H90.5293L93.8309 7.22857H104.396Z" fill="#F6F6F6"/>
<path d="M17.1668 4.20571H19.8082C20.6666 4.20571 21.3268 4.33714 21.657 4.53429C22.0533 4.73143 22.1853 5.12571 22.1853 5.65143C22.1853 6.44 21.7891 6.96571 20.9966 7.22857H27.6659C27.864 6.63714 27.9961 5.98 27.9961 5.25714C27.9961 3.61429 27.4017 2.3 26.1472 1.38C24.8926 0.46 23.2417 0 21.1288 0H12.1484L11.29 4.20571H17.1668Z" fill="#F6F6F6"/>
<path d="M47.61 0H32.2907L31.3662 4.27143H46.7516L47.61 0Z" fill="#F6F6F6"/>
<path d="M39.0246 7.88558L39.2228 6.96558H30.9688L30.7706 7.88558L30.1104 11.1713H38.3643L39.0246 7.88558Z" fill="#F6F6F6"/>
<path d="M43.2514 14.5886H27.668L26.8096 18.86H42.393L43.2514 14.5886Z" fill="#F6F6F6"/>
<path d="M34.9304 38.4428H26.3464L27.3368 33.6458H21.1959L19.2148 43.3058H33.9399L34.9304 38.4428Z" fill="#F6F6F6"/>
<path d="M23.1758 31.6745H29.3167L30.7695 24.446H24.6945L23.1758 31.6745Z" fill="#F6F6F6"/>
<path d="M43.7797 40.8085H50.845L51.3072 43.3058H57.3161L55.2032 33.6458H49.7885L50.1847 36.3399H46.2889L47.8076 33.6458H41.8648L35.9219 43.3058H42.393L43.7797 40.8085Z" fill="#F6F6F6"/>
<path d="M48.334 24.446L43.8438 31.6745H49.7866L51.3053 28.9802L51.7675 31.6745H57.1822L55.6635 24.446H48.334Z" fill="#F6F6F6"/>
<path d="M62.005 36.9971L60.6844 43.3058H66.8253L68.0799 37.2599L71.1174 33.6458H60.4863L62.005 36.9971Z" fill="#F6F6F6"/>
<path d="M72.7011 24.446L67.8807 30.426L65.5696 24.446H59.2305L62.466 31.6745H73.0971L79.3042 24.446H72.7011Z" fill="#F6F6F6"/>
<path d="M12.7443 28.3886C13.6028 28.3886 14.2631 28.5201 14.5933 28.7172C14.9895 28.9145 15.1215 29.2429 15.1215 29.7686C15.1215 31.0172 14.197 31.6086 12.2821 31.6745H20.6022C20.9324 30.9515 21.0644 30.0972 21.0644 29.1772C21.0644 27.4686 20.4701 26.1545 19.3475 25.3001C18.159 24.4458 16.4422 23.9858 14.131 23.9858H5.61292L4.68848 28.3886H10.5653H12.7443Z" fill="#F6F6F6"/>
<path d="M18.6869 33.6458H10.367C10.301 33.6458 10.1689 33.6458 10.1029 33.6458H8.65016H7.98984H2.04698L0 43.3058H5.87682L6.99936 38.1142H9.5746C12.546 38.1142 14.8571 37.5228 16.574 36.2742C17.5644 35.5514 18.2247 34.6971 18.6869 33.6458Z" fill="#F6F6F6"/>
<path d="M13.4689 13.34H16.3742L18.6193 18.9257H25.0905L22.0529 12.42C23.3076 11.8943 24.298 11.1714 24.9584 10.2514C25.2225 9.92285 25.4207 9.52855 25.5527 9.13428H17.8269C17.6289 9.13428 17.3647 9.13428 17.1667 9.13428H15.1858H14.3273H8.58252L6.60156 18.86H12.2803L13.4689 13.34Z" fill="#F6F6F6"/>
<path d="M96.8024 24.5115H81.417L80.5586 28.7829H95.8779L96.8024 24.5115Z" fill="#F6F6F6"/>
<path d="M79.2383 35.9459H87.4923L88.2847 31.7402H80.0307L79.2383 35.9459Z" fill="#F6F6F6"/>
<path d="M76.0029 43.3715H91.5865L92.4448 39.1001H76.8614L76.0029 43.3715Z" fill="#F6F6F6"/>
<path d="M114.631 25.826C113.376 24.906 111.725 24.446 109.612 24.446H100.632L99.7734 28.6517H105.65H108.291C109.15 28.6517 109.81 28.7831 110.141 28.9802C110.537 29.1774 110.669 29.5717 110.669 30.0974C110.669 30.886 110.273 31.4117 109.48 31.6745H116.149C116.347 31.0831 116.479 30.426 116.479 29.7031C116.479 28.0602 115.819 26.746 114.631 25.826Z" fill="#F6F6F6"/>
<path d="M113.442 34.6317C113.706 34.3031 113.904 33.9088 114.036 33.5146H106.31C106.112 33.5146 105.848 33.5146 105.65 33.5146H103.669H102.811H97.0659L95.085 43.306H100.764L101.952 37.7203H104.858L107.103 43.306H113.574L110.536 36.8003C111.791 36.2746 112.781 35.5517 113.442 34.6317Z" fill="#F6F6F6"/>
<path d="M41.9287 54.4774H57.2481L58.1725 50.1401H42.7871L41.9287 54.4774Z" fill="#F6F6F6"/>
<path d="M49.6554 57.3687H41.4014L40.543 61.5743H48.797L49.6554 57.3687Z" fill="#F6F6F6"/>
<path d="M37.375 68.9999H52.8924L53.8168 64.7285H38.2334L37.375 68.9999Z" fill="#F6F6F6"/>
<path d="M16.3096 57.3687H26.1483L24.4315 50.1401H17.8283L16.3096 57.3687Z" fill="#F6F6F6"/>
<path d="M40.2776 50.1401H33.2782L28.5898 57.3687H38.8249L40.2776 50.1401Z" fill="#F6F6F6"/>
<path d="M24.8286 62.1658L24.1684 59.3401H14.3296L12.3486 69.0001H17.8293L19.5462 60.8516L21.3289 69.0001H25.7531L30.9695 60.6544L29.2528 69.0001H34.8655L36.8464 59.3401H26.6115L24.8286 62.1658Z" fill="#F6F6F6"/>
</g>
</g>
<defs>
<clipPath id="clip0_302_1447">
<rect width="117" height="69" fill="white"/>
</clipPath>
</defs>
</svg>
